<svg xmlns="http://www.w3.org/2000/svg" xmlns:xlink="http://www.w3.org/1999/xlink" preserveAspectRatio="xMidYMid" width="96" height="30" viewBox="0 0 96 30">
  <defs>
    <style>
      .cls-1, .cls-2 {
        fill: #fff;
      }

      .cls-1, .cls-3 {
        fill-rule: evenodd;
      }

      .cls-3 {
        fill: #ff4500;
      }
    </style>
  </defs>
  <g>
    <path d="M91.548,23.228 C91.284,23.888 90.873,24.401 90.315,24.767 C89.757,25.133 89.136,25.316 88.452,25.316 C87.504,25.316 86.610,24.932 85.770,24.164 L86.994,22.166 C87.450,22.610 87.918,22.832 88.398,22.832 C88.650,22.832 88.866,22.709 89.046,22.463 C89.226,22.217 89.316,21.956 89.316,21.680 C89.316,21.404 88.068,18.116 85.572,11.816 L88.452,11.816 L90.810,17.846 L93.168,11.816 L96.048,11.816 L91.548,23.228 ZM80.331,21.644 C79.185,21.644 78.234,21.170 77.478,20.222 L77.478,21.500 L74.778,21.500 L74.778,8.144 L77.478,8.144 L77.478,12.896 C78.222,12.068 79.182,11.654 80.358,11.654 C81.534,11.654 82.560,12.113 83.436,13.031 C84.312,13.949 84.750,15.128 84.750,16.568 C84.750,18.008 84.300,19.214 83.400,20.186 C82.500,21.158 81.477,21.644 80.331,21.644 ZM81.348,14.714 C80.892,14.186 80.346,13.922 79.710,13.922 C79.074,13.922 78.537,14.183 78.099,14.705 C77.661,15.227 77.442,15.881 77.442,16.667 C77.442,17.453 77.661,18.095 78.099,18.593 C78.537,19.091 79.068,19.340 79.692,19.340 C80.316,19.340 80.862,19.091 81.330,18.593 C81.798,18.095 82.032,17.456 82.032,16.676 C82.032,15.896 81.804,15.242 81.348,14.714 ZM68.331,21.644 C67.185,21.644 66.234,21.170 65.478,20.222 L65.478,21.500 L62.778,21.500 L62.778,8.144 L65.478,8.144 L65.478,12.896 C66.222,12.068 67.182,11.654 68.358,11.654 C69.534,11.654 70.560,12.113 71.436,13.031 C72.312,13.949 72.750,15.128 72.750,16.568 C72.750,18.008 72.300,19.214 71.400,20.186 C70.500,21.158 69.477,21.644 68.331,21.644 ZM69.348,14.714 C68.892,14.186 68.346,13.922 67.710,13.922 C67.074,13.922 66.537,14.183 66.099,14.705 C65.661,15.227 65.442,15.881 65.442,16.667 C65.442,17.453 65.661,18.095 66.099,18.593 C66.537,19.091 67.068,19.340 67.692,19.340 C68.316,19.340 68.862,19.091 69.330,18.593 C69.798,18.095 70.032,17.456 70.032,16.676 C70.032,15.896 69.804,15.242 69.348,14.714 ZM55.341,21.644 C53.871,21.644 52.650,21.164 51.678,20.204 C50.706,19.244 50.220,18.062 50.220,16.658 C50.220,15.254 50.706,14.069 51.678,13.103 C52.650,12.137 53.871,11.654 55.341,11.654 C56.811,11.654 58.032,12.137 59.004,13.103 C59.976,14.069 60.462,15.254 60.462,16.658 C60.462,18.062 59.976,19.244 59.004,20.204 C58.032,21.164 56.811,21.644 55.341,21.644 ZM57.069,14.714 C56.619,14.210 56.043,13.958 55.341,13.958 C54.639,13.958 54.063,14.210 53.613,14.714 C53.163,15.218 52.938,15.866 52.938,16.658 C52.938,17.450 53.163,18.095 53.613,18.593 C54.063,19.091 54.639,19.340 55.341,19.340 C56.043,19.340 56.619,19.091 57.069,18.593 C57.519,18.095 57.744,17.450 57.744,16.658 C57.744,15.866 57.519,15.218 57.069,14.714 ZM43.928,21.608 C42.416,21.608 41.096,21.026 39.968,19.862 L41.426,17.846 C42.182,18.662 42.974,19.070 43.802,19.070 C44.198,19.070 44.537,18.917 44.819,18.611 C45.101,18.305 45.242,17.846 45.242,17.234 L45.242,11.330 L41.516,11.330 L41.516,8.918 L48.068,8.918 L48.068,17.126 C48.068,18.626 47.681,19.748 46.907,20.492 C46.133,21.236 45.140,21.608 43.928,21.608 Z" class="cls-1"/>
    <circle cx="15" cy="15" r="15" class="cls-2"/>
    <path d="M23.411,16.110 C23.299,16.110 23.191,16.099 23.086,16.077 C22.363,15.927 21.821,15.287 21.821,14.521 C21.821,13.968 22.104,13.481 22.532,13.197 C22.783,13.028 23.085,12.931 23.411,12.931 C24.288,12.931 25.000,13.643 25.000,14.521 C25.000,15.399 24.288,16.110 23.411,16.110 ZM19.064,13.970 L19.228,14.183 L22.319,18.221 C22.406,18.335 22.462,18.461 22.499,18.590 C22.511,18.632 22.512,18.673 22.519,18.716 C22.529,18.777 22.549,18.838 22.549,18.900 C22.549,18.922 22.535,18.942 22.534,18.964 C22.528,19.070 22.500,19.169 22.464,19.270 C22.447,19.318 22.440,19.366 22.417,19.412 C22.344,19.552 22.246,19.682 22.112,19.785 C22.111,19.786 22.110,19.787 22.109,19.787 C22.108,19.788 22.107,19.789 22.106,19.790 C21.994,19.874 21.871,19.928 21.744,19.965 C21.706,19.976 21.667,19.978 21.628,19.985 C21.569,19.995 21.512,20.014 21.453,20.015 C21.447,20.015 21.440,20.015 21.434,20.015 C21.432,20.015 21.430,20.015 21.428,20.015 C21.296,20.015 21.169,19.983 21.045,19.937 C21.039,19.934 21.033,19.931 21.027,19.928 C20.955,19.900 20.883,19.873 20.818,19.830 C20.718,19.764 20.626,19.679 20.548,19.578 L17.152,15.142 C16.881,14.790 16.749,14.368 16.749,13.949 C16.749,13.442 16.943,12.936 17.323,12.557 L18.456,11.424 L19.570,10.310 C19.608,10.272 19.649,10.236 19.691,10.205 C19.744,10.165 19.805,10.144 19.863,10.115 C19.900,10.096 19.934,10.072 19.973,10.058 C20.096,10.012 20.223,9.985 20.352,9.984 C20.640,9.982 20.928,10.090 21.147,10.310 C21.582,10.746 21.582,11.452 21.147,11.887 L19.064,13.970 ZM19.932,8.934 C19.915,8.983 19.908,9.032 19.884,9.078 C19.810,9.218 19.713,9.348 19.579,9.451 L15.143,12.846 C14.791,13.117 14.369,13.250 13.950,13.250 C13.442,13.250 12.937,13.056 12.558,12.676 L11.425,11.543 L10.311,10.428 C10.093,10.211 9.984,9.926 9.984,9.640 C9.984,9.640 9.984,9.640 9.984,9.640 C9.984,9.499 10.011,9.359 10.064,9.227 C10.065,9.225 10.065,9.222 10.065,9.220 C10.120,9.086 10.202,8.960 10.311,8.852 C10.529,8.634 10.814,8.525 11.100,8.525 C11.100,8.525 11.100,8.525 11.100,8.525 C11.100,8.525 11.100,8.526 11.101,8.526 C11.241,8.526 11.381,8.553 11.513,8.606 C11.555,8.623 11.589,8.658 11.629,8.680 C11.712,8.726 11.798,8.766 11.870,8.834 C11.876,8.840 11.882,8.846 11.888,8.852 L13.971,10.935 L14.184,10.771 L18.223,7.680 C18.336,7.593 18.461,7.538 18.590,7.500 C18.633,7.488 18.675,7.487 18.718,7.480 C18.779,7.470 18.839,7.450 18.900,7.450 C18.922,7.450 18.942,7.464 18.964,7.465 C19.069,7.471 19.167,7.498 19.266,7.533 C19.315,7.551 19.364,7.558 19.411,7.582 C19.538,7.648 19.652,7.739 19.750,7.856 C19.759,7.867 19.773,7.870 19.782,7.882 C19.782,7.882 19.782,7.882 19.783,7.882 C19.783,7.883 19.784,7.884 19.785,7.885 C19.785,7.885 19.786,7.887 19.786,7.887 C19.873,8.001 19.929,8.126 19.966,8.256 C19.978,8.297 19.979,8.338 19.986,8.380 C19.997,8.442 20.016,8.503 20.016,8.565 C20.016,8.587 20.003,8.607 20.002,8.629 C19.995,8.735 19.967,8.834 19.932,8.934 ZM14.522,8.178 C13.968,8.178 13.482,7.896 13.198,7.468 C13.197,7.467 13.197,7.467 13.197,7.467 C13.148,7.393 13.105,7.315 13.068,7.233 C13.059,7.212 13.062,7.186 13.054,7.165 C12.987,6.996 12.942,6.818 12.938,6.626 C12.938,6.617 12.932,6.609 12.932,6.600 C12.932,6.596 12.932,6.592 12.932,6.588 C12.932,5.711 13.644,5.000 14.522,5.000 C14.539,5.000 14.556,5.000 14.573,5.000 C14.696,5.004 14.804,5.049 14.919,5.080 C14.997,5.100 15.082,5.102 15.155,5.134 C15.273,5.186 15.368,5.269 15.469,5.346 C15.529,5.392 15.599,5.421 15.652,5.474 C15.747,5.571 15.810,5.692 15.878,5.809 C15.911,5.867 15.961,5.913 15.987,5.976 C16.064,6.158 16.104,6.359 16.107,6.569 C16.107,6.576 16.111,6.581 16.111,6.588 C16.111,6.700 16.100,6.808 16.077,6.913 C15.928,7.636 15.288,8.178 14.522,8.178 ZM12.852,14.864 C12.982,15.034 13.078,15.220 13.144,15.415 C13.167,15.481 13.167,15.551 13.182,15.619 C13.210,15.742 13.247,15.865 13.250,15.990 C13.251,16.010 13.251,16.029 13.251,16.049 C13.251,16.556 13.057,17.062 12.677,17.441 L11.544,18.574 L10.430,19.688 C10.200,19.919 9.894,20.019 9.592,20.006 C9.468,20.001 9.344,19.982 9.227,19.935 C9.184,19.917 9.149,19.881 9.108,19.858 C9.025,19.812 8.939,19.772 8.868,19.704 C8.863,19.698 8.858,19.694 8.853,19.688 C8.656,19.491 8.561,19.237 8.542,18.980 C8.540,18.953 8.526,18.927 8.526,18.900 C8.526,18.900 8.526,18.900 8.526,18.900 C8.526,18.614 8.635,18.329 8.853,18.111 L10.936,16.028 L10.772,15.815 L7.680,11.777 C7.594,11.663 7.538,11.537 7.501,11.408 C7.489,11.366 7.488,11.325 7.481,11.283 C7.470,11.221 7.451,11.161 7.451,11.099 C7.451,11.076 7.465,11.056 7.466,11.034 C7.472,10.929 7.500,10.830 7.535,10.730 C7.553,10.681 7.560,10.632 7.584,10.586 C7.657,10.445 7.754,10.316 7.888,10.213 C8.001,10.126 8.127,10.070 8.256,10.033 C8.298,10.021 8.340,10.020 8.382,10.012 C8.444,10.002 8.504,9.983 8.565,9.983 C8.565,9.983 8.565,9.983 8.565,9.983 C8.566,9.983 8.566,9.983 8.566,9.983 C8.588,9.983 8.608,9.996 8.630,9.997 C8.734,10.003 8.831,10.031 8.929,10.065 C8.978,10.082 9.028,10.090 9.075,10.114 C9.200,10.178 9.310,10.268 9.406,10.380 C9.417,10.394 9.434,10.398 9.445,10.412 C9.445,10.412 9.446,10.413 9.446,10.413 C9.446,10.413 9.446,10.413 9.446,10.413 C9.448,10.416 9.450,10.418 9.451,10.420 L12.848,14.856 C12.849,14.858 12.850,14.861 12.852,14.864 ZM8.178,15.477 C8.178,16.030 7.896,16.517 7.468,16.801 C7.217,16.970 6.915,17.067 6.589,17.067 C6.370,17.067 6.162,17.022 5.972,16.942 C5.972,16.942 5.972,16.942 5.972,16.942 C5.909,16.916 5.863,16.864 5.804,16.829 C5.802,16.828 5.801,16.827 5.799,16.826 C5.684,16.758 5.563,16.697 5.468,16.603 C5.468,16.603 5.468,16.603 5.468,16.603 C5.415,16.550 5.387,16.477 5.341,16.417 C5.340,16.416 5.340,16.415 5.339,16.414 C5.263,16.313 5.178,16.218 5.128,16.100 C5.128,16.100 5.128,16.100 5.128,16.100 C5.096,16.027 5.098,15.940 5.078,15.862 C5.047,15.740 5.001,15.624 5.000,15.493 C5.001,15.624 5.047,15.740 5.077,15.861 C5.077,15.861 5.077,15.861 5.077,15.861 C5.047,15.740 5.001,15.624 5.000,15.493 C5.000,15.488 5.000,15.482 5.000,15.477 C5.000,14.600 5.711,13.888 6.589,13.888 C6.701,13.888 6.809,13.899 6.914,13.921 C7.637,14.071 8.178,14.711 8.178,15.477 ZM14.857,17.152 C15.209,16.881 15.631,16.748 16.050,16.748 C16.557,16.748 17.063,16.942 17.442,17.322 L18.575,18.455 L19.689,19.569 C19.821,19.700 19.899,19.859 19.951,20.024 C19.986,20.133 20.016,20.244 20.016,20.358 C20.016,20.358 20.016,20.358 20.016,20.358 C20.016,20.643 19.907,20.929 19.689,21.146 C19.471,21.364 19.186,21.473 18.900,21.473 C18.759,21.473 18.618,21.445 18.485,21.392 C18.445,21.376 18.413,21.341 18.374,21.320 C18.288,21.274 18.200,21.232 18.126,21.160 C18.121,21.155 18.117,21.151 18.112,21.146 L16.029,19.063 C15.958,19.118 15.882,19.166 15.816,19.227 L11.777,22.319 C11.775,22.321 11.773,22.322 11.770,22.324 C11.770,22.324 11.770,22.324 11.770,22.324 C11.769,22.325 11.768,22.325 11.767,22.326 C11.656,22.409 11.533,22.463 11.406,22.499 C11.368,22.510 11.329,22.511 11.290,22.518 C11.227,22.529 11.164,22.548 11.100,22.548 C11.100,22.548 11.100,22.548 11.100,22.548 C11.100,22.548 11.100,22.548 11.100,22.548 C11.077,22.548 11.057,22.535 11.034,22.533 C10.932,22.527 10.837,22.500 10.740,22.467 C10.689,22.449 10.638,22.441 10.589,22.416 C10.467,22.353 10.359,22.264 10.265,22.155 C10.252,22.141 10.232,22.135 10.220,22.120 C10.220,22.120 10.220,22.120 10.220,22.119 C10.219,22.117 10.217,22.116 10.215,22.113 C10.215,22.112 10.214,22.111 10.214,22.111 C9.839,21.621 9.932,20.922 10.421,20.548 L14.857,17.152 ZM14.101,22.634 C14.123,22.594 14.149,22.558 14.175,22.520 C14.206,22.474 14.230,22.424 14.266,22.381 C14.317,22.321 14.378,22.270 14.438,22.218 C14.455,22.203 14.468,22.187 14.485,22.173 C14.607,22.075 14.744,22.000 14.891,21.941 C14.923,21.928 14.956,21.918 14.990,21.907 C15.145,21.856 15.306,21.821 15.478,21.821 C16.032,21.821 16.518,22.103 16.802,22.531 C16.971,22.782 17.068,23.084 17.068,23.409 C17.068,24.288 16.356,24.999 15.478,24.999 C14.601,24.999 13.889,24.288 13.889,23.409 C13.889,23.298 13.900,23.190 13.922,23.085 C13.956,22.923 14.022,22.774 14.101,22.634 Z" class="cls-3"/>
  </g>
</svg>
